<?xml version="1.0" encoding="UTF-8" standalone="no"?>
<!DOCTYPE svg PUBLIC "-//W3C//DTD SVG 1.1//EN" "http://www.w3.org/Graphics/SVG/1.1/DTD/svg11.dtd">
<svg version="1.1" xmlns="http://www.w3.org/2000/svg" xmlns:xlink="http://www.w3.org/1999/xlink" preserveAspectRatio="xMidYMid meet" viewBox="0 0 1024 686.08" width="1024" height="686.08"><defs><path d="M1016 0C1020.42 0 1024 3.58 1024 8C1024 143.62 1024 542.46 1024 678.08C1024 682.5 1020.42 686.08 1016 686.08C812.8 686.08 211.2 686.08 8 686.08C3.58 686.08 0 682.5 0 678.08C0 542.46 0 143.62 0 8C0 3.58 3.58 0 8 0C211.2 0 812.8 0 1016 0Z" id="b3yLtpFvsy"></path><path d="M703.42 684.61L322.25 684.61L322.25 0.76L703.42 0.76L703.42 684.61Z" id="g4Cg6qUJDn"></path><path d="M684.65 663.07L341.85 663.07L339.35 20.02L684.65 20.02L684.65 663.07Z" id="a2Dvv9kNp"></path><path d="M574.55 334.03L574.55 352.8L644.61 352.8L644.61 334.03L574.55 334.03Z" id="a3axg15PoQ"></path><path d="M574.55 63.8L574.55 311.52L644.61 311.52L644.61 289L595.82 289L595.82 88.83L644.61 88.83L644.61 63.8L574.55 63.8Z" id="anmmqSvyO"></path><path d="M388.14 63.8L388.14 625.53L548.28 625.53L548.28 145.12L468.21 145.12L468.21 177.65L500.74 177.65L500.74 583L436.94 583L436.94 112.6L548.28 115.1L548.28 63.8L388.14 63.8Z" id="b1gzxK0ORS"></path></defs><g><g><g><use xlink:href="#b3yLtpFvsy" opacity="1" fill="#ffffff" fill-opacity="1"></use></g><g><use xlink:href="#g4Cg6qUJDn" opacity="1" fill="#000000" fill-opacity="1"></use><g><use xlink:href="#g4Cg6qUJDn" opacity="1" fill-opacity="0" stroke="#000000" stroke-width="1" stroke-opacity="1"></use></g></g><g><use xlink:href="#a2Dvv9kNp" opacity="1" fill="#ffffff" fill-opacity="1"></use><g><use xlink:href="#a2Dvv9kNp" opacity="1" fill-opacity="0" stroke="#000000" stroke-width="1" stroke-opacity="1"></use></g></g><g><use xlink:href="#a3axg15PoQ" opacity="1" fill="#000000" fill-opacity="1"></use><g><use xlink:href="#a3axg15PoQ" opacity="1" fill-opacity="0" stroke="#000000" stroke-width="1" stroke-opacity="1"></use></g></g><g><use xlink:href="#anmmqSvyO" opacity="1" fill="#000000" fill-opacity="1"></use><g><use xlink:href="#anmmqSvyO" opacity="1" fill-opacity="0" stroke="#000000" stroke-width="1" stroke-opacity="1"></use></g></g><g><use xlink:href="#b1gzxK0ORS" opacity="1" fill="#000000" fill-opacity="1"></use><g><use xlink:href="#b1gzxK0ORS" opacity="1" fill-opacity="0" stroke="#000000" stroke-width="1" stroke-opacity="1"></use></g></g></g></g></svg>