<?xml version="1.0" encoding="UTF-8" standalone="no"?>
<!DOCTYPE svg PUBLIC "-//W3C//DTD SVG 1.1//EN" "http://www.w3.org/Graphics/SVG/1.1/DTD/svg11.dtd">
<svg version="1.1" xmlns="http://www.w3.org/2000/svg" xmlns:xlink="http://www.w3.org/1999/xlink" preserveAspectRatio="xMidYMid meet" viewBox="321.24895798971124 -0.24444266746735366 385.16620934579475 687.8499515910257" width="381.17" height="683.85"><defs><path d="M703.42 684.61L322.25 684.61L322.25 0.76L703.42 0.76L703.42 684.61Z" id="g1ECX4IiBd"></path><path d="M684.65 663.07L341.85 663.07L339.35 20.02L684.65 20.02L684.65 663.07Z" id="cIi7VLOyG"></path><path d="M574.55 334.03L574.55 352.8L644.61 352.8L644.61 334.03L574.55 334.03Z" id="b2lulDKAMC"></path><path d="M574.55 63.8L574.55 311.52L644.61 311.52L644.61 289L595.82 289L595.82 88.83L644.61 88.83L644.61 63.8L574.55 63.8Z" id="c4NIr6hOYX"></path><path d="M388.14 63.8L388.14 625.53L548.28 625.53L548.28 145.12L468.21 145.12L468.21 177.65L500.74 177.65L500.74 583L436.94 583L436.94 112.6L548.28 115.1L548.28 63.8L388.14 63.8Z" id="eZ45N1yf9"></path></defs><g><g><use xlink:href="#g1ECX4IiBd" opacity="1" fill="#000000" fill-opacity="1"></use><g><use xlink:href="#g1ECX4IiBd" opacity="1" fill-opacity="0" stroke="#000000" stroke-width="1" stroke-opacity="1"></use></g></g><g><use xlink:href="#cIi7VLOyG" opacity="1" fill="#ffffff" fill-opacity="1"></use><g><use xlink:href="#cIi7VLOyG" opacity="1" fill-opacity="0" stroke="#000000" stroke-width="1" stroke-opacity="1"></use></g></g><g><use xlink:href="#b2lulDKAMC" opacity="1" fill="#000000" fill-opacity="1"></use><g><use xlink:href="#b2lulDKAMC" opacity="1" fill-opacity="0" stroke="#000000" stroke-width="1" stroke-opacity="1"></use></g></g><g><use xlink:href="#c4NIr6hOYX" opacity="1" fill="#000000" fill-opacity="1"></use><g><use xlink:href="#c4NIr6hOYX" opacity="1" fill-opacity="0" stroke="#000000" stroke-width="1" stroke-opacity="1"></use></g></g><g><use xlink:href="#eZ45N1yf9" opacity="1" fill="#000000" fill-opacity="1"></use><g><use xlink:href="#eZ45N1yf9" opacity="1" fill-opacity="0" stroke="#000000" stroke-width="1" stroke-opacity="1"></use></g></g></g></svg>